# xmcd
#
# Track frame offsets:
#	150
#	15103
#	33106
#	47038
#	72638
#	85015
#	99418
#	111933
#	127182
#	142491
#	160642
#	181886
#
# Disc length: 2613 seconds
#
# Revision: 0
# Processed by: cddbd v1.5.1PL2 Copyright (c) Steve Scherf et al.
# Submitted via: dBpowerAMP V4.0
#
DISCID=9c0a330c
DTITLE=Various Artist - Sail Away: The Songs of Randy Newman
DYEAR=2006
DGENRE=
TTITLE0=Tim O'Brien - Sail Away
TTITLE1=Sonny Landreth - Louisiana 1927
TTITLE2=The Del McCoury Band - Birmingham
TTITLE3=Reckless Kelly and Joe Ely - Rider in the Rain
TTITLE4=Allison Moorer - Marie
TTITLE5=Steve Earle - Rednecks
TTITLE6=Bela Fleck - Burn On
TTITLE7=Sam Bush - Mr. President (Have Pity on the Working Man)
TTITLE8=Guster - Memo To My Son
TTITLE9=The Duhks - Political Science
TTITLE10=Marc Broussard - You Can Leave Your Hat On
TTITLE11=Kim Richey - Texas Girl at the Funeral of Her Father
EXTD=
EXTT0=
EXTT1=
EXTT2=
EXTT3=
EXTT4=
EXTT5=
EXTT6=
EXTT7=
EXTT8=
EXTT9=
EXTT10=
EXTT11=
PLAYORDER=
